<svg width="64" height="64" viewBox="0 0 64 64" fill="none" xmlns="http://www.w3.org/2000/svg">
<g clip-path="url(#clip0_765_102)">
<path d="M32 32C36.8497 32 41.5007 30.3143 44.93 27.3137C48.3592 24.3131 50.2857 20.2435 50.2857 16C50.2857 11.7565 48.3592 7.68687 44.93 4.68629C41.5007 1.68571 36.8497 0 32 0C27.1503 0 22.4993 1.68571 19.07 4.68629C15.6408 7.68687 13.7143 11.7565 13.7143 16C13.7143 20.2435 15.6408 24.3131 19.07 27.3137C22.4993 30.3143 27.1503 32 32 32ZM18.2857 38.9C7.71429 41.6125 0 50.1625 0 60.2875C0 62.3375 1.9 64 4.24286 64H59.7571C62.1 64 64 62.3375 64 60.2875C64 50.1625 56.2857 41.6125 45.7143 38.9V45.25C49.6571 46.1375 52.5714 49.275 52.5714 53V58C52.5714 59.1 51.5429 60 50.2857 60H48C46.7429 60 45.7143 59.1 45.7143 58C45.7143 56.9 46.7429 56 48 56V53C48 50.7875 45.9571 49 43.4286 49C40.9 49 38.8571 50.7875 38.8571 53V56C40.1143 56 41.1429 56.9 41.1429 58C41.1429 59.1 40.1143 60 38.8571 60H36.5714C35.3143 60 34.2857 59.1 34.2857 58V53C34.2857 49.275 37.2 46.1375 41.1429 45.25V38.1125C40.2857 38.0375 39.4143 38 38.5286 38H25.4714C24.5857 38 23.7143 38.0375 22.8571 38.1125V46.2875C26.1571 47.15 28.5714 49.825 28.5714 53C28.5714 56.8625 24.9857 60 20.5714 60C16.1571 60 12.5714 56.8625 12.5714 53C12.5714 49.825 14.9857 47.15 18.2857 46.2875V38.9ZM20.5714 56C21.4807 56 22.3528 55.6839 22.9958 55.1213C23.6388 54.5587 24 53.7957 24 53C24 52.2043 23.6388 51.4413 22.9958 50.8787C22.3528 50.3161 21.4807 50 20.5714 50C19.6621 50 18.79 50.3161 18.1471 50.8787C17.5041 51.4413 17.1429 52.2043 17.1429 53C17.1429 53.7957 17.5041 54.5587 18.1471 55.1213C18.79 55.6839 19.6621 56 20.5714 56Z" fill="#307DEF"/>
</g>
<defs>
<clipPath id="clip0_765_102">
<rect width="64" height="64" fill="white"/>
</clipPath>
</defs>
</svg>
