<svg width="64" height="64" viewBox="0 0 64 64" fill="none" xmlns="http://www.w3.org/2000/svg">
<path d="M58.9387 29.7253V34.3413H5.07733V17.792H0V50.896H5.07733V43.3307H58.9387V51.528H64V29.72L58.9387 29.7253Z" fill="#307DEF"/>
<path d="M23.224 29.7733V29.776C23.224 31.28 22.0053 32.5013 20.4987 32.5013H10.1147C9.39186 32.5013 8.69866 32.2142 8.18756 31.7031C7.67646 31.192 7.38933 30.4988 7.38933 29.776V29.7707C7.38933 28.2667 8.608 27.0453 10.1147 27.0453H20.4987C22.0027 27.0453 23.224 28.264 23.224 29.7707V29.7733ZM52.648 19.104H46.328V12.8H41.848V19.1067H35.5413V23.5867H41.8453V29.8933H46.3253V23.5867H52.6453L52.648 19.104Z" fill="#FF0A0A"/>
</svg>
