<svg width="16" height="16" viewBox="0 0 16 16" fill="none" xmlns="http://www.w3.org/2000/svg">
<circle cx="8" cy="8" r="8" fill="#F5F5F5"/>
<path d="M8.00003 4.16C8.50925 4.16 8.99761 4.36229 9.35768 4.72236C9.71775 5.08243 9.92003 5.57079 9.92003 6.08C9.92003 6.58922 9.71775 7.07758 9.35768 7.43765C8.99761 7.79772 8.50925 8 8.00003 8C7.49082 8 7.00246 7.79772 6.64239 7.43765C6.28232 7.07758 6.08003 6.58922 6.08003 6.08C6.08003 5.57079 6.28232 5.08243 6.64239 4.72236C7.00246 4.36229 7.49082 4.16 8.00003 4.16ZM8.00003 8.96C10.1216 8.96 11.84 9.8192 11.84 10.88V11.84H4.16003V10.88C4.16003 9.8192 5.87843 8.96 8.00003 8.96Z" fill="#48B553"/>
</svg>
